<?xml version="1.0" encoding="utf-8"?>
<!-- Generator: Adobe Illustrator 22.0.1, SVG Export Plug-In . SVG Version: 6.00 Build 0)  -->
<svg version="1.1" id="Objects" xmlns="http://www.w3.org/2000/svg" xmlns:xlink="http://www.w3.org/1999/xlink" x="0px" y="0px"
	 viewBox="0 0 399.7 341" style="enable-background:new 0 0 399.7 341;" xml:space="preserve">
<style type="text/css">
	.st0{fill:#9ADEE6;stroke:#D9E4E6;stroke-width:20.7292;stroke-linecap:round;stroke-linejoin:round;stroke-miterlimit:10;}
	
		.st1{opacity:0.1;fill:#FCFCFC;stroke:#1F3134;stroke-width:20.7292;stroke-linecap:round;stroke-linejoin:round;stroke-miterlimit:10;}
</style>
<g>
	<path class="st0" d="M365.4,10.4H31.1c-11.4,0-18.9,7-18.9,18.5v211.4c0,11.4,7.4,23,18.9,23h129.7l38.2,66.2l38.2-66.2h128.2
		c11.4,0,22.6-11.6,22.6-23V28.8C388,17.4,376.9,10.4,365.4,10.4z"/>
	<path class="st1" d="M233.5,77.5c-26.6-0.8-36.6,26.8-36.6,26.8s-8.5-28.1-35-28.8c-26.6-0.8-31.2,26.3-30.2,39.9
		c4.2,54,63,66.6,63,66.6s59.4-9.3,66.7-63C263.2,105.6,260.1,78.3,233.5,77.5z"/>
</g>
</svg>
