<?xml version="1.0" encoding="utf-8"?>
<!-- Generator: Adobe Illustrator 22.0.1, SVG Export Plug-In . SVG Version: 6.00 Build 0)  -->
<svg version="1.1" id="Слой_1" xmlns="http://www.w3.org/2000/svg" xmlns:xlink="http://www.w3.org/1999/xlink" x="0px" y="0px"
	 viewBox="0 0 100 100" style="enable-background:new 0 0 100 100;" xml:space="preserve">
<style type="text/css">
	.st0{fill:#F5B3B1;}
</style>
<path class="st0" d="M25.2,69.9c3.4,3.4,6.9,6.8,10.3,10.3c4.9,4.9,9.8,9.8,14.8,14.7c0.1-0.1,0.2-0.2,0.3-0.3
	c4.6-4.7,9.3-9.3,13.9-14c3.5-3.6,7.1-7.1,10.6-10.7c5.7-5.8,11.4-11.5,17.1-17.3c0.1-0.1,0.2-0.2,0.2-0.2
	c5.8-5.9,8.2-13.9,7.2-21.5c-0.7-5.4-3.2-10.6-7.3-14.7C87.3,11,80.5,8.5,73.8,8.6c-6.4,0.1-12.7,2.7-17.6,7.6
	c-1.9,1.9-3.8,3.8-5.7,5.8c-0.1,0.1-0.3,0.3-0.4,0.4c-2.1-2.1-4.2-4.2-6.3-6.3c-5.1-5-11.7-7.5-18.4-7.4c-6.5,0.1-12.9,2.6-17.9,7.6
	C3.4,20.4,1,25.6,0.3,31c-1,7.6,1.5,15.6,7.4,21.4c0.1,0.1,0.2,0.2,0.3,0.3C13.7,58.4,19.5,64.2,25.2,69.9z"/>
</svg>
