<?xml version="1.0" encoding="utf-8"?>
<!-- Generator: Adobe Illustrator 22.0.1, SVG Export Plug-In . SVG Version: 6.00 Build 0)  -->
<svg version="1.1" id="Слой_1" xmlns="http://www.w3.org/2000/svg" xmlns:xlink="http://www.w3.org/1999/xlink" x="0px" y="0px"
	 viewBox="0 0 100 100" style="enable-background:new 0 0 100 100;" xml:space="preserve">
<style type="text/css">
	.st0{fill:#EEBE63;stroke:#EEBE63;stroke-width:0.5826;stroke-miterlimit:10;}
	.st1{fill:url(#SVGID_1_);}
	.st2{fill:url(#SVGID_2_);}
	.st3{fill:url(#SVGID_3_);}
	.st4{fill:#38632E;}
	.st5{opacity:0.5;fill:url(#SVGID_4_);}
	.st6{opacity:0.5;fill:#C6D644;}
	.st7{fill:#DE8C2E;}
	.st8{opacity:0.6;fill:#DE8C2E;}
	.st9{fill:#EFCBA6;}
	.st10{fill:#754618;}
	.st11{opacity:0.35;fill:#885218;}
	.st12{fill:#7F511B;}
</style>
<g>
	<path class="st0" d="M93,58.2c0,22.3-18.9,40.4-42.2,40.4S8.7,80.5,8.7,58.2c0-22.3,18.9-40.4,42.2-40.4S93,35.9,93,58.2z"/>
	<g>
		<g>
			<linearGradient id="SVGID_1_" gradientUnits="userSpaceOnUse" x1="46.48" y1="8.9293" x2="68.1854" y2="8.9293">
				<stop  offset="0" style="stop-color:#5DA357"/>
				<stop  offset="0.5031" style="stop-color:#9DC44D"/>
				<stop  offset="1" style="stop-color:#C2D77B"/>
			</linearGradient>
			<path class="st1" d="M48.5,15.8c0,0-3.6-4.5-1.2-9.3c2.4-5,17.1-1.7,20.9-5.4c0,0-4.6,12.8-11.9,14.8
				C49.5,17.8,48.5,15.8,48.5,15.8z"/>
			<linearGradient id="SVGID_2_" gradientUnits="userSpaceOnUse" x1="46.48" y1="8.9293" x2="68.1854" y2="8.9293">
				<stop  offset="0" style="stop-color:#5DA357"/>
				<stop  offset="0.5031" style="stop-color:#9DC44D"/>
				<stop  offset="1" style="stop-color:#C2D77B"/>
			</linearGradient>
			<path class="st2" d="M48.5,15.8c0,0-3.6-4.5-1.2-9.3c2.4-5,17.1-1.7,20.9-5.4c0,0-4.6,12.8-11.9,14.8
				C49.5,17.8,48.5,15.8,48.5,15.8z"/>
			
				<linearGradient id="SVGID_3_" gradientUnits="userSpaceOnUse" x1="55.128" y1="62.4661" x2="76.4176" y2="62.4661" gradientTransform="matrix(0.999 4.530000e-02 -4.530000e-02 0.999 -5.6793 -56.9543)">
				<stop  offset="0" style="stop-color:#5DA357"/>
				<stop  offset="0.5031" style="stop-color:#9DC44D"/>
				<stop  offset="1" style="stop-color:#C2D77B"/>
			</linearGradient>
			<path class="st3" d="M47.3,6.5c-2.4,4.9,1.2,9.3,1.2,9.3S50,11,54.7,8.8c5.3-2.5,12.2-3.7,13.4-7.7C64.4,4.8,49.7,1.5,47.3,6.5z"
				/>
			<path class="st4" d="M45.5,19.3c0,0,1.3-1.1,2.2-2.9c0.9-1.8,3.8-7,7.1-7.5c0,0-4,1.2-6.4,7.5c-1.6,4.2-2.5,3.9-2.5,3.9
				L45.5,19.3z"/>
		</g>
		<linearGradient id="SVGID_4_" gradientUnits="userSpaceOnUse" x1="46.4607" y1="7.7365" x2="68.1854" y2="7.7365">
			<stop  offset="0" style="stop-color:#5DA357"/>
			<stop  offset="0.5031" style="stop-color:#9DC44D"/>
			<stop  offset="1" style="stop-color:#C2D77B"/>
		</linearGradient>
		<path class="st5" d="M47.3,6.5c-1.5,3.2-0.6,6.1,0.3,7.8l0,0c0,0-1.1-7.2,3.4-7.8c6.7-0.8,15.2-2.9,17.2-5.5
			C64.4,4.8,49.7,1.5,47.3,6.5z"/>
		<path class="st6" d="M49.9,16c0,0,0.2-2.9,2-3.1c1.9-0.2,10.3-2.6,12.9-6.1C64.8,6.8,59.7,16.2,49.9,16z"/>
	</g>
	<g>
		<g>
			<path class="st7" d="M43.3,23.9c0,0-4.3,3.4-4,6.8c0,0,5.8,0,7.9-3.8c0,0,6.4,1.6,10.9,0.9c0,0-3.6-3.9-6.7-4.4
				c0,0,3.1-3.1,3.5-4.7c0,0-4.7-0.1-7.5,2.5c0,0-3.2-3.1-8.3-1.9C39,19.4,41.4,23.5,43.3,23.9z"/>
			<path class="st8" d="M43.2,26.6c-0.2-2.8,4.8,0.5,5.8-1.8c2.5-5.6,5.2-5,5.4-5c0.2-0.4,0.4-0.7,0.5-1c0,0-4.7-0.1-7.5,2.5
				c0,0-3.2-3.1-8.3-1.9c0,0,2.4,4,4.3,4.4c0,0-4.3,3.4-4,6.8c0,0,5.8,0,7.9-3.8C47.2,27,43.3,27.7,43.2,26.6z"/>
		</g>
		<path class="st9" d="M51,24.3c-0.2-0.2,4.3,1.2,6.2,3.3C57.2,27.6,52.6,26.4,51,24.3z"/>
	</g>
	<g>
		<path class="st10" d="M46.8,25.1c0,0,1.4,0.4,2.3-0.7c0,0-3.1-12.9-11.8-20.5c0,0-1.3-0.4-2.7,1.2c-1.4,1.6-0.1,2.2-0.1,2.2
			S43.7,11.8,46.8,25.1z"/>
		<path class="st11" d="M37.3,3.9c0,0-1.3-0.4-2.7,1.2c-1.4,1.6-0.1,2.2-0.1,2.2S35,7.5,35.7,8l0,0c0,0,1.2,0.2,1.8-0.5
			c0.6-0.7,0.7-1,3.7,3.5c3,4.5,5.9,10.3,6.3,13.3c0.1,0.7-0.7,0.7-0.7,0.7c1.1,0.2,1.8-0.2,2.3-0.7C49.1,24.4,46,11.5,37.3,3.9z"/>
		<path class="st12" d="M37.1,3.8c0,0-0.6-0.4-2.2,1c-1.5,1.4-1.1,2.4-0.1,2.7C35.7,8,38.8,4.4,37.1,3.8z"/>
	</g>
</g>
</svg>
