<svg xmlns="http://www.w3.org/2000/svg" xmlns:xlink="http://www.w3.org/1999/xlink" viewBox="0 0 299 276.23"><defs><style>.cls-1{isolation:isolate;}.cls-2{mix-blend-mode:multiply;}.Graphic-Style-5{fill:#808285;}.cls-3{fill:url(#linear-gradient);}.cls-4{fill:url(#Безымянный_градиент_28);}.cls-5{fill:url(#Безымянный_градиент_13);}.cls-6{fill:url(#Безымянный_градиент_24);}</style><linearGradient id="linear-gradient" x1="0.5" y1="151.48" x2="299.5" y2="151.48" gradientUnits="userSpaceOnUse"><stop offset="0" stop-color="#fff"/><stop offset="1" stop-color="#d1d3d4"/></linearGradient><linearGradient id="Безымянный_градиент_28" x1="153.92" y1="17.29" x2="144.85" y2="297.1" gradientUnits="userSpaceOnUse"><stop offset="0" stop-color="#cb0084"/><stop offset="1" stop-color="#f053a3"/></linearGradient><linearGradient id="Безымянный_градиент_13" x1="13.6" y1="147.48" x2="286.4" y2="147.48" gradientUnits="userSpaceOnUse"><stop offset="0" stop-color="#3633a3"/><stop offset="1" stop-color="#88028d"/></linearGradient><linearGradient id="Безымянный_градиент_24" x1="154.24" y1="235.27" x2="147.64" y2="79.61" gradientTransform="translate(1.71 -1.69) rotate(0.65)" gradientUnits="userSpaceOnUse"><stop offset="0" stop-color="#fff"/><stop offset="1" stop-color="#f2f2f2"/></linearGradient></defs><title>form5</title><g class="cls-1"><g id="Слой_1" data-name="Слой 1"><g class="cls-2"><path class="Graphic-Style-5" d="M109,289.38a18.18,18.18,0,0,1-15.81-9.25,18.47,18.47,0,0,1,.33-18.71c1.92-3.24,6.14-10.89,7-17.19A58.59,58.59,0,0,1,61,227.5a59.48,59.48,0,0,1-15.76-26.41A66.26,66.26,0,0,1,.73,138.4v-.26A66.56,66.56,0,0,1,43.78,75.86,77.4,77.4,0,0,1,175,36.84a58.78,58.78,0,0,1,64,12.09,59.48,59.48,0,0,1,15.76,26.41A66.27,66.27,0,0,1,299.27,138v.26a66.56,66.56,0,0,1-43,62.28,77.36,77.36,0,0,1-103.73,57.09c-8.2,12.09-20,22.07-35,29.67A18.54,18.54,0,0,1,109,289.38Z" transform="translate(-0.5 -13.36)"/></g><path class="cls-3" d="M108.94,289.59a18.22,18.22,0,0,1-15.84-9.26,18.5,18.5,0,0,1,.33-18.74c1.93-3.24,6.15-10.91,7-17.22a58.71,58.71,0,0,1-39.61-16.75,59.6,59.6,0,0,1-15.78-26.45A66.36,66.36,0,0,1,.5,138.38v-.26A66.66,66.66,0,0,1,43.61,75.74,77.52,77.52,0,0,1,175,36.66a58.91,58.91,0,0,1,64.13,12.11A59.65,59.65,0,0,1,255,75.22,66.37,66.37,0,0,1,299.5,138v.26a66.66,66.66,0,0,1-43.11,62.38A77.44,77.44,0,0,1,152.5,257.82c-8.22,12.11-20,22.11-35.1,29.72A18.58,18.58,0,0,1,108.94,289.59Z" transform="translate(-0.5 -13.36)"/><path class="cls-4" d="M108.94,287.46a16.11,16.11,0,0,1-14-8.18,16.4,16.4,0,0,1,.31-16.59c2.62-4.41,7.46-13.48,7.47-20.43H102a56.59,56.59,0,0,1-39.68-16.17A57.24,57.24,0,0,1,46.8,199.51,64.44,64.44,0,0,1,2.62,138.38v-.27A64.65,64.65,0,0,1,45.46,77.34,75.71,75.71,0,0,1,66.87,37.23,74.89,74.89,0,0,1,119.74,15.5a75.88,75.88,0,0,1,54.8,23.71A57.11,57.11,0,0,1,253.2,76.88,64.45,64.45,0,0,1,297.38,138v.28a64.65,64.65,0,0,1-42.84,60.76,75.71,75.71,0,0,1-21.41,40.11,75,75,0,0,1-81.45,16c-6.77,10.49-17.68,21.57-35.23,30.44A16.63,16.63,0,0,1,108.94,287.46Z" transform="translate(-0.5 -13.36)"/><g class="cls-2"><path class="Graphic-Style-5" d="M126,218.38c1.09-.8,2.16-1.64,3.18-2.55.52.87,1.06,1.71,1.63,2.55Z" transform="translate(-0.5 -13.36)"/></g><path class="cls-5" d="M286.4,133.68a49.92,49.92,0,0,0-43.91-49.9,42.87,42.87,0,0,0-42.68-41.45,42.36,42.36,0,0,0-28.22,10.73,62,62,0,0,0-53-30.06C84.93,23,57.44,50.18,56.7,83.87A50.08,50.08,0,0,0,13.6,133.6v.12a49.91,49.91,0,0,0,43.91,49.89,42.68,42.68,0,0,0,53.23,40.12c6.85,7.31,12.13,21.6-3.37,47.65-.31.52-.13.73.41.45,23.67-11.95,33-28.06,36.72-39.73a61.75,61.75,0,0,0,36.89,12.29c33.68,0,61.16-27.18,61.91-60.87a50.07,50.07,0,0,0,43.1-49.73Z" transform="translate(-0.5 -13.36)"/><path class="cls-6" d="M112.7,261.35c11.86-22.41,7-35.52.38-42.7l-.84-.92L111,218a38.78,38.78,0,0,1-48-37l0-1.82L61.21,179a45.92,45.92,0,0,1-39.72-46.18v-.15a46,46,0,0,1,40-45.08l1.79-.23.06-1.81c1-31,27-56,57.87-55.63a57.56,57.56,0,0,1,48.67,28.35l1.28,2.18,1.91-1.66a38.77,38.77,0,0,1,64.14,28.67l.05,1.82,1.79.23a45.93,45.93,0,0,1,39.72,46.18v.15a46,46,0,0,1-40,45.08l-1.79.23-.06,1.81c-1,31-27,56-57.87,55.63a57.42,57.42,0,0,1-34-11.76L142.72,225l-.93,2.82C138.61,237.49,131,250.79,112.7,261.35Z" transform="translate(-0.5 -13.36)"/></g></g></svg>