<svg id="Слой_1" data-name="Слой 1" xmlns="http://www.w3.org/2000/svg" viewBox="0 0 264.93 256.76"><defs><style>.cls-1{fill:#cc9258;}.cls-2{fill:#f1ac68;}.cls-3{fill:none;}.cls-4{fill:#da0735;}.cls-5{fill:#f1c69c;}.cls-6{fill:#a70529;}</style></defs><title>form6_icon</title><rect class="cls-1" x="10.89" y="78.83" width="243.16" height="17.82"/><rect class="cls-2" x="80" y="39" width="126" height="9"/><path class="cls-2" d="M10.89,96.69H254a0,0,0,0,1,0,0V246.76a10,10,0,0,1-10,10H20.89a10,10,0,0,1-10-10V96.69A0,0,0,0,1,10.89,96.69Z"/><path class="cls-3" d="M197.06,61.44l.85-.32a17.67,17.67,0,0,0,3.23-1.61,3.23,3.23,0,0,0,.58-.42l.23-.2.07-.06s0,0,0,0,0,0,0,0l0,0s0,0,0,0a.11.11,0,0,0,0,0s.07-.13.1-.19l.12-.25,0-.16a4.83,4.83,0,0,0,.15-1.28v-.68a6,6,0,0,0-.11-.72,14.59,14.59,0,0,0-2.64-5.88,20.47,20.47,0,0,0-4.9-4.84l-.69-.49-.72-.39-.71-.39-.71-.28a6.66,6.66,0,0,0-1.38-.44l-.33-.1h-.19a1.32,1.32,0,0,1-.33-.08s0,0-.11,0l-.27,0-.54,0-.54,0h-.07c-.55.14-1.1.2-1.66.39a16.4,16.4,0,0,0-1.69.53,18,18,0,0,0-1.69.67,41.35,41.35,0,0,0-6.63,3.73A95.55,95.55,0,0,0,164.26,58.4q-1.51,1.5-3,3h35.82Z" transform="translate(-18 -22)"/><path class="cls-3" d="M139.65,61.44c-1-1-2-2-3-3a91.9,91.9,0,0,0-12.22-10.35,40.83,40.83,0,0,0-6.65-3.74c-.56-.25-1.13-.48-1.69-.67s-1.13-.37-1.7-.53-1.09-.24-1.64-.38h-.09l-.54,0-.55,0-.27,0a.34.34,0,0,0-.1,0,1.05,1.05,0,0,1-.34.08h-.19l-.34.1a6.92,6.92,0,0,0-1.38.45l-.71.29-.71.39-.72.4-.69.48a20.56,20.56,0,0,0-4.89,4.87,14.58,14.58,0,0,0-2.61,5.88,5.56,5.56,0,0,0-.1,1.39,5.82,5.82,0,0,0,.16,1.28l0,.16h0c.05,0,.08,0,0,0l.11.21s.09.2.09.17,0,0,0,0,0,0,0,0-.08-.07,0,0,0,0,0,0l.07.07.23.19a3.23,3.23,0,0,0,.58.42,18.22,18.22,0,0,0,3.22,1.6l1,.36h35.63Z" transform="translate(-18 -22)"/><path class="cls-2" d="M272.93,61.44H208.76l-.18.3-.17.26-.34.43c-.24.29-.49.57-.75.83a3.68,3.68,0,0,1-.69.58l-.61.44a10,10,0,0,1-1.21.73,25.17,25.17,0,0,1-4.63,1.84q-2.25.66-4.47,1.11c-3,.61-5.9,1-8.83,1.39-6.66.75-13.3,1.16-19.92,1.39v30.09h106a10,10,0,0,0,10-10V71.44A10,10,0,0,0,272.93,61.44Z" transform="translate(-18 -22)"/><path class="cls-2" d="M114.07,69.28c-2.93-.34-5.86-.77-8.82-1.37-1.48-.3-3-.66-4.48-1.11A24.33,24.33,0,0,1,96.15,65a8.73,8.73,0,0,1-1.21-.72l-.61-.44L94,63.59c-.1-.08-.26-.24-.38-.36s-.51-.54-.75-.83L92.55,62c-.1-.14-.1-.17-.16-.25l-.17-.28H28a10,10,0,0,0-10,10V90.83a10,10,0,0,0,10,10H134V70.66C127.36,70.43,120.73,70,114.07,69.28Z" transform="translate(-18 -22)"/><rect class="cls-4" x="115.98" y="78.83" width="32.98" height="177.93"/><path class="cls-5" d="M151.93,71c-1,0-1.47-.34-1.44-.69h0c-.06.32-.55.61-1.44.61-5,0-10-.1-15-.28v30.17h33V70.74C161.94,70.92,156.93,71,151.93,71Z" transform="translate(-18 -22)"/><path class="cls-6" d="M98.74,58.48h0C98.82,58.51,98.79,58.5,98.74,58.48Z" transform="translate(-18 -22)"/><path class="cls-6" d="M99,58.8s0,0,0,0S98.9,58.76,99,58.8Z" transform="translate(-18 -22)"/><path class="cls-6" d="M103.05,61.08a18.22,18.22,0,0,1-3.22-1.6,3.23,3.23,0,0,1-.58-.42L99,58.87,99,58.8s0,0,0,0,0,0,0,0-.06-.12-.09-.17l-.11-.21L98,58.31l.11,0,.21,0a4,4,0,0,1,.4.09h0l0-.16A5.82,5.82,0,0,1,98.54,57a5.56,5.56,0,0,1,.1-1.39,14.58,14.58,0,0,1,2.61-5.88,20.56,20.56,0,0,1,4.89-4.87l.69-.48.72-.4.71-.39.71-.29a6.92,6.92,0,0,1,1.38-.45l.34-.1h.19a1.05,1.05,0,0,0,.34-.08.34.34,0,0,1,.1,0l.27,0,.55,0,.54,0h.06l-.11,0,.42,0h-.28c.55.14,1.09.19,1.64.38s1.13.31,1.7.53,1.13.42,1.69.67a40.83,40.83,0,0,1,6.65,3.74A91.9,91.9,0,0,1,136.67,58.4c1,1,2,2,3,3h8q-2.51-3.81-5.39-7.41A71.8,71.8,0,0,0,129.69,41.7a43,43,0,0,0-8.08-4.83c-.74-.34-1.5-.66-2.3-.94a25.34,25.34,0,0,0-2.42-.77c-.81-.26-1.7-.38-2.55-.57l-.16,0-.49-.06h-.1l-.27,0-.55,0-.54,0-.27,0-.43,0c-.6,0-1.21.09-1.82.17l-.89.13-.71.19a15.59,15.59,0,0,0-2.7.93l-1.26.57c-.4.21-.77.44-1.15.66l-1.12.68-1,.76a27,27,0,0,0-6.59,7.19A20.61,20.61,0,0,0,91,54.93a11.21,11.21,0,0,0-.06,1.3l.11,1.34a11.77,11.77,0,0,0,.62,2.69l.1.34,0,.08.21.46,0,0,.06.11.1.17H104Z" transform="translate(-18 -22)"/><path class="cls-6" d="M98.72,58.47h0a4,4,0,0,0-.4-.09l-.21,0-.11,0,.74.18h0C98.68,58.47,98.6,58.44,98.72,58.47Z" transform="translate(-18 -22)"/><path class="cls-6" d="M113,42.75h0l-.42,0,.11,0H113Z" transform="translate(-18 -22)"/><path class="cls-6" d="M98.74,58.48h0C98.6,58.44,98.68,58.47,98.74,58.48Z" transform="translate(-18 -22)"/><path class="cls-6" d="M92.55,62l.34.43c.24.29.49.56.75.83s.28.28.38.36l.31.22.61.44a8.73,8.73,0,0,0,1.21.72,24.33,24.33,0,0,0,4.62,1.83c1.51.45,3,.81,4.48,1.11,3,.6,5.89,1,8.82,1.37,6.66.75,13.29,1.15,19.91,1.38V67.75c-6.4-.88-12.75-2-19-3.28-2.77-.6-5.51-1.28-8.14-2.08-1-.29-1.91-.61-2.84-1H92.22l.17.28C92.45,61.8,92.45,61.83,92.55,62Z" transform="translate(-18 -22)"/><path class="cls-6" d="M146.71,69.27l2.39.25a2.5,2.5,0,0,1,.41.07,1.3,1.3,0,0,1-.35-1.55c.4-.7.82-1.39,1.23-2.08q-1.32-2.29-2.78-4.52h-8C142.08,64,144.43,66.59,146.71,69.27Z" transform="translate(-18 -22)"/><path class="cls-6" d="M149.51,69.59a2.5,2.5,0,0,0-.41-.07l-2.39-.25c.33.4.67.79,1,1.19.54.67,1.77.45,2.74-.13h0A3.53,3.53,0,0,1,149.51,69.59Z" transform="translate(-18 -22)"/><path class="cls-6" d="M147.72,70.46c-.34-.4-.68-.79-1-1.19q-6.39-.64-12.73-1.52v2.91c5,.18,10,.25,15,.28.89,0,1.38-.29,1.44-.61C149.49,70.91,148.26,71.13,147.72,70.46Z" transform="translate(-18 -22)"/><path class="cls-6" d="M150.46,70.33h0Z" transform="translate(-18 -22)"/><path class="cls-6" d="M188.31,42.75l-.43,0h.1l.21,0h0Z" transform="translate(-18 -22)"/><path class="cls-6" d="M202.05,58.78s0,0,0,0l0,0S202.05,58.78,202.05,58.78Z" transform="translate(-18 -22)"/><path class="cls-6" d="M202.25,58.5c0,.09.35-.79.18-.4v0l-.06.12-.11.21h0Z" transform="translate(-18 -22)"/><path class="cls-6" d="M164.26,58.4a95.55,95.55,0,0,1,12.26-10.31,41.35,41.35,0,0,1,6.63-3.73,18,18,0,0,1,1.69-.67,16.4,16.4,0,0,1,1.69-.53c.56-.19,1.11-.25,1.66-.39l-.21,0h-.1l.43,0-.1,0h0l.54,0,.54,0,.27,0c.08,0,.07,0,.11,0a1.32,1.32,0,0,0,.33.08h.19l.33.1a6.66,6.66,0,0,1,1.38.44l.71.28.71.39.72.39.69.49a20.47,20.47,0,0,1,4.9,4.84,14.59,14.59,0,0,1,2.64,5.88,6,6,0,0,1,.11.72V57a4.83,4.83,0,0,1-.15,1.28l0,.16.11-.21.06-.12v0c.17-.39-.22.49-.18.4v0h0l-.12.25c0,.06-.09.2-.1.19a.11.11,0,0,1,0,0s0,0,0,0l-.07.06-.23.2a3.23,3.23,0,0,1-.58.42,17.67,17.67,0,0,1-3.23,1.61l-.85.32h11.7l.08-.15.07-.11,0,0,.21-.47v0l.11-.34a12,12,0,0,0,.61-2.69l.11-1.35a11.21,11.21,0,0,0-.06-1.3,20.43,20.43,0,0,0-3.25-9.22,26.84,26.84,0,0,0-6.59-7.18l-1-.76-1.12-.67c-.38-.23-.75-.45-1.14-.66l-1.26-.57a14.52,14.52,0,0,0-2.7-.92l-.7-.2c-.27,0-.59-.09-.89-.13-.6-.07-1.21-.13-1.81-.17l-.44,0-.27,0-.54,0-.54,0-.27,0h-.11l-.48.05-.16,0c-.85.19-1.74.31-2.54.57a25.34,25.34,0,0,0-2.42.77c-.8.27-1.56.6-2.3.93a43.76,43.76,0,0,0-8.07,4.83A72.92,72.92,0,0,0,158.73,54q-2.94,3.6-5.48,7.42h8Q162.74,59.9,164.26,58.4Z" transform="translate(-18 -22)"/><path class="cls-6" d="M194.1,62.44c-2.63.81-5.37,1.49-8.14,2.1-6.24,1.34-12.6,2.41-19,3.29v2.91c6.62-.23,13.26-.64,19.92-1.39,2.93-.35,5.86-.78,8.83-1.39q2.22-.45,4.47-1.11A25.17,25.17,0,0,0,204.81,65a10,10,0,0,0,1.21-.73l.61-.44a3.68,3.68,0,0,0,.69-.58c.26-.26.51-.54.75-.83l.34-.43.17-.26.18-.3h-11.7C196.1,61.8,195.12,62.14,194.1,62.44Z" transform="translate(-18 -22)"/><path class="cls-6" d="M151.64,68.12a1.36,1.36,0,0,1-.39,1.58,3.07,3.07,0,0,1,.6-.11l2.11-.22c2.35-2.71,4.78-5.37,7.28-7.93h-8c-1,1.48-1.94,3-2.86,4.52C150.81,66.68,151.24,67.39,151.64,68.12Z" transform="translate(-18 -22)"/><path class="cls-6" d="M153.09,70.37l.87-1-2.11.22a3.07,3.07,0,0,0-.6.11,3.57,3.57,0,0,1-.76.61v0C151.43,70.83,152.58,71,153.09,70.37Z" transform="translate(-18 -22)"/><path class="cls-6" d="M154,69.37l-.87,1c-.51.62-1.66.46-2.6,0,0,.35.43.68,1.44.69,5,0,10-.1,15-.28V67.83Q160.48,68.73,154,69.37Z" transform="translate(-18 -22)"/><path class="cls-6" d="M150.47,70.32h0v0Z" transform="translate(-18 -22)"/><path class="cls-6" d="M150.46,70.32c0-.29-.27-.59-1-.73A3.53,3.53,0,0,0,150.46,70.32Z" transform="translate(-18 -22)"/><path class="cls-6" d="M151.25,69.7a1.36,1.36,0,0,0,.39-1.58c-.4-.73-.83-1.44-1.25-2.16-.41.69-.83,1.38-1.23,2.08a1.3,1.3,0,0,0,.35,1.55c.68.14,1,.44,1,.73h0C150.53,70.07,150.77,69.84,151.25,69.7Z" transform="translate(-18 -22)"/><path class="cls-6" d="M150.49,70.31a3.57,3.57,0,0,0,.76-.61C150.77,69.84,150.53,70.07,150.49,70.31Z" transform="translate(-18 -22)"/><path class="cls-4" d="M151.42,69.14a282.55,282.55,0,0,0,29.19-17.23c2.28-1.58,4.51-3.22,6.59-4.93,1-.85,2-1.73,2.94-2.62a16.48,16.48,0,0,0,2.27-2.67,2.87,2.87,0,0,0,.36-.6l.13-.27.06-.13s0,0,0,0,0,0,0,.07l0,0s0-.15,0-.21l0-.51v-.16c0-.42,0,.54,0,.44v0l-.05-.16a5.35,5.35,0,0,0-.4-1.23l-.29-.63a5.52,5.52,0,0,0-.41-.62,15.69,15.69,0,0,0-4.91-4.42,21.88,21.88,0,0,0-6.56-2.64l-.84-.19-.82-.1-.82-.09h-.78a6.79,6.79,0,0,0-1.45.1l-.34,0-.17.07a1.29,1.29,0,0,1-.35,0s0,0-.11,0l-.24.11-.48.24-.49.23-.24.12-.06,0h0l.37-.2-.08.06c-.45.34-.94.59-1.37,1a15.33,15.33,0,0,0-1.33,1.11c-.44.38-.86.81-1.27,1.24A38.25,38.25,0,0,0,165,40.29a87.5,87.5,0,0,0-6.88,14c-2,4.91-3.68,10-5.19,15.11-.43,1.56-4.73,1.11-4.59-.69a94.1,94.1,0,0,1,2.84-16.41,67.68,67.68,0,0,1,6.33-15.93A40.36,40.36,0,0,1,162.84,29a22.88,22.88,0,0,1,1.71-1.7,22.76,22.76,0,0,1,1.89-1.6c.64-.53,1.4-1,2.1-1.46l.13-.09.43-.23h0l.06,0,.24-.12.48-.23.49-.23.24-.11.41-.14c.57-.19,1.15-.37,1.74-.52.28-.07.6-.16.86-.21l.73-.08a15.63,15.63,0,0,1,2.87-.14l1.4.05c.45.05.88.12,1.33.18l1.32.21,1.26.32a29.11,29.11,0,0,1,9.1,4.15,22,22,0,0,1,6.89,7.28,10,10,0,0,1,.61,1.17l.47,1.28a11.38,11.38,0,0,1,.58,2.7l0,.34v0c0,.22,0-.44,0,.5v.19l-.06.51c0,.1,0,.12,0,.3l-.13.53c-.1.35-.21.7-.34,1a4,4,0,0,1-.38.78l-.38.63a8.36,8.36,0,0,1-.8,1.11,22.6,22.6,0,0,1-3.47,3.4c-1.2,1-2.41,1.85-3.64,2.68-2.46,1.65-5,3.13-7.52,4.53A310.47,310.47,0,0,1,152.1,70.42C150.3,71.14,149.83,70,151.42,69.14Z" transform="translate(-18 -22)"/><path class="cls-4" d="M148.88,70.36a321.66,321.66,0,0,1-31.39-14.43c-2.55-1.4-5.06-2.87-7.53-4.52-1.23-.82-2.44-1.7-3.64-2.67a23,23,0,0,1-3.47-3.39,8.93,8.93,0,0,1-.8-1.1l-.38-.63-.18-.32c-.06-.11-.14-.32-.2-.47a9.65,9.65,0,0,1-.33-1l-.13-.52c0-.17,0-.19,0-.29l-.06-.51v-.16c0,.41,0-.58,0-.49v-.09l0-.34a11.88,11.88,0,0,1,.57-2.7l.47-1.27a10.71,10.71,0,0,1,.6-1.17A22,22,0,0,1,109.29,27a29.33,29.33,0,0,1,9.11-4.17l1.26-.32,1.32-.21c.45-.06.88-.14,1.33-.18l1.4-.06a15.72,15.72,0,0,1,2.88.15l.73.08c.28.05.58.13.87.21.59.15,1.18.33,1.75.52l.4.14.24.11.49.23.48.23.24.12.06,0,0,0,.43.23.14.09c.7.49,1.46.93,2.1,1.46a22.86,22.86,0,0,1,1.89,1.61,23,23,0,0,1,1.72,1.7,40.42,40.42,0,0,1,5.37,7.42,66.92,66.92,0,0,1,6.27,16,89.65,89.65,0,0,1,2.68,16.43c.11,1.74-4.17,2.29-4.59.69a156.34,156.34,0,0,0-5-15.15,83.89,83.89,0,0,0-6.83-14,37.77,37.77,0,0,0-4.52-5.89,16.45,16.45,0,0,0-1.27-1.24A15.33,15.33,0,0,0,128.9,32c-.44-.38-.93-.64-1.38-1l-.08-.06.36.2,0,0-.06,0-.24-.11-.48-.24-.49-.23-.24-.12c-.06,0-.07,0-.11,0a1,1,0,0,1-.34,0c-.07,0-.1-.05-.18-.07l-.35,0a6.86,6.86,0,0,0-1.46-.09H123l-.82.1-.83.09-.84.19A22.27,22.27,0,0,0,114,33.25a15.63,15.63,0,0,0-4.89,4.43,5.69,5.69,0,0,0-.68,1.25,5,5,0,0,0-.4,1.23l0,.16v0c-.26-.19.59.44-.59-.42l.09.06.18.12c.11.08.25.15.34.23v.26c0,.06,0,.22,0,.19s0,0,0,0a0,0,0,0,0,0-.07c0-.06,0,0,0,.14l.13.26a2.44,2.44,0,0,0,.36.6,16,16,0,0,0,2.28,2.66q1.37,1.34,2.94,2.61c2.07,1.71,4.3,3.34,6.59,4.92a289.78,289.78,0,0,0,29.17,17.21C151.25,70,150.58,71,148.88,70.36Z" transform="translate(-18 -22)"/><rect class="cls-4" x="11" y="110" width="243" height="25"/><path class="cls-6" d="M151.93,71c-1,0-1.47-.34-1.44-.69h0c-.06.32-.55.61-1.44.61-5,0-10-.1-15-.28v30.17h33V70.74C161.94,70.92,156.93,71,151.93,71Z" transform="translate(-18 -22)"/><rect class="cls-6" x="116" y="110" width="33" height="25"/></svg>