<svg width="21.88" height="17.77" viewBox="0 0 23 19" fill="none" xmlns="http://www.w3.org/2000/svg">
<path d="M20.0015 4.67774C20.0154 4.87205 20.0154 5.06641 20.0154 5.26072C20.0154 11.1875 15.5044 18.0165 7.25954 18.0165C4.71947 18.0165 2.35986 17.2809 0.375 16.004C0.735896 16.0456 1.08286 16.0595 1.45765 16.0595C3.55351 16.0595 5.48288 15.3516 7.02357 14.144C5.05259 14.1024 3.40085 12.8115 2.83176 11.0348C3.10939 11.0765 3.38697 11.1042 3.67848 11.1042C4.08099 11.1042 4.48354 11.0487 4.85828 10.9516C2.80403 10.5351 1.26329 8.73074 1.26329 6.55156V6.49606C1.86011 6.82919 2.55418 7.03739 3.28977 7.06512C2.0822 6.26005 1.29106 4.88594 1.29106 3.33135C1.29106 2.49856 1.5131 1.73516 1.90177 1.06891C4.10872 3.78941 7.42608 5.56603 11.1459 5.76039C11.0765 5.42726 11.0349 5.08029 11.0349 4.73328C11.0349 2.26259 13.0336 0.25 15.5182 0.25C16.809 0.25 17.9749 0.791323 18.7939 1.66577C19.8071 1.47146 20.7787 1.09668 21.6393 0.583125C21.3061 1.62416 20.5983 2.49861 19.6683 3.05377C20.5705 2.95666 21.445 2.70676 22.25 2.35979C21.6394 3.24808 20.8759 4.03922 20.0015 4.67774Z" fill="white"/>
</svg>
