<svg width="25" height="14.77" viewBox="0 0 35 21" fill="none" xmlns="http://www.w3.org/2000/svg">
<path d="M33.5999 1.43632C33.8344 0.648358 33.5999 0.0684204 32.4719 0.0684204H28.7393C27.7887 0.0684204 27.3515 0.56641 27.117 1.12113C27.117 1.12113 25.2158 5.72912 22.5289 8.71706C21.6607 9.58066 21.2614 9.85802 20.7862 9.85802C20.5517 9.85802 20.1905 9.58066 20.1905 8.7927V1.43632C20.1905 0.490766 19.9243 0.0684204 19.1385 0.0684204H13.2703C12.6746 0.0684204 12.3197 0.509677 12.3197 0.919416C12.3197 1.81454 13.6632 2.02256 13.8026 4.54403V10.0156C13.8026 11.2133 13.5871 11.4339 13.1119 11.4339C11.8444 11.4339 8.76457 6.80705 6.93947 1.51196C6.57191 0.484463 6.21069 0.0684204 5.25378 0.0684204H1.5212C0.456552 0.0684204 0.241089 0.56641 0.241089 1.12113C0.241089 2.10451 1.50852 6.98985 6.14098 13.4448C9.22718 17.8511 13.5745 20.2402 17.5289 20.2402C19.9053 20.2402 20.1968 19.7107 20.1968 18.7966C20.1968 14.5858 19.9813 14.1886 21.1727 14.1886C21.7241 14.1886 22.6746 14.466 24.8926 16.5903C27.4275 19.1118 27.8458 20.2402 29.2653 20.2402H32.9979C34.0625 20.2402 34.6012 19.7107 34.2907 18.6643C33.5809 16.4643 28.7837 11.9382 28.5682 11.6357C28.0169 10.9296 28.1753 10.6145 28.5682 9.9841C28.5745 9.97779 33.131 3.59848 33.5999 1.43632V1.43632Z" fill="white"/>
</svg>
