<svg width="10" height="9" viewBox="0 0 10 9" fill="none" xmlns="http://www.w3.org/2000/svg">
<path d="M9.88745 7.7346C10.2079 8.297 9.80566 9 9.16563 9H0.834276C0.193008 9 -0.207373 8.29591 0.112453 7.7346L4.27818 0.421611C4.59879 -0.141047 5.40179 -0.140027 5.72183 0.421611L9.88745 7.7346ZM5 6.22266C4.55894 6.22266 4.20139 6.58468 4.20139 7.03125C4.20139 7.47782 4.55894 7.83984 5 7.83984C5.44106 7.83984 5.79861 7.47782 5.79861 7.03125C5.79861 6.58468 5.44106 6.22266 5 6.22266ZM4.24179 3.31618L4.37058 5.70681C4.3766 5.81868 4.46795 5.90625 4.5786 5.90625H5.42141C5.53205 5.90625 5.62341 5.81868 5.62943 5.70681L5.75821 3.31618C5.76473 3.19535 5.66971 3.09375 5.55019 3.09375H4.4498C4.33028 3.09375 4.23528 3.19535 4.24179 3.31618Z" fill="#ED74A9" fill-opacity="0.5"/>
</svg>
