<svg xmlns="http://www.w3.org/2000/svg" viewBox="0 0 488.18 488.18"><title>e-round_icon</title><g id="Слой_2" data-name="Слой 2"><g id="Слой_1-2" data-name="Слой 1"><g id="_Группа_" data-name="&lt;Группа&gt;"><path id="_Контур_" data-name="&lt;Контур&gt;" d="M288.28,474.36c47.26-32.81,76.33,13.55,122.44-15.24A64.16,64.16,0,0,0,434,434a64.16,64.16,0,0,0,25.1-23.3c28.79-46.1-17.57-75.18,15.24-122.44a77.55,77.55,0,0,0,0-88.38c-32.81-47.26,13.55-76.33-15.24-122.44A64.16,64.16,0,0,0,434,54.16a64.16,64.16,0,0,0-23.3-25.1C364.61.27,335.54,46.63,288.28,13.82a77.55,77.55,0,0,0-88.38,0C152.64,46.63,123.57.27,77.46,29.06a64.16,64.16,0,0,0-23.3,25.1,64.16,64.16,0,0,0-25.1,23.3C.27,123.57,46.63,152.64,13.82,199.9a77.55,77.55,0,0,0,0,88.38C46.63,335.54.27,364.62,29.06,410.72A64.16,64.16,0,0,0,54.16,434a64.16,64.16,0,0,0,23.3,25.1c46.11,28.79,75.18-17.57,122.44,15.24A77.55,77.55,0,0,0,288.28,474.36Z" style="fill:#92c700"/></g><circle id="_Контур_2" data-name="&lt;Контур&gt;" cx="244.09" cy="242.09" r="204.88" style="fill:#fbfdf7"/></g></g></svg>