<svg width="292" height="60" viewBox="0 0 292 60" fill="none" xmlns="http://www.w3.org/2000/svg">
<path fill-rule="evenodd" clip-rule="evenodd" d="M27.2391 0.000143496C12.144 0.0485252 -0.0482382 12.2891 0.000143496 27.3842C0.0485252 42.4793 12.2891 54.6715 27.3842 54.6231C42.4793 54.5747 54.6715 42.3341 54.6231 27.2391C54.5747 12.144 42.2858 -0.0482382 27.2391 0.000143496Z" fill="#2C4F16"/>
<path fill-rule="evenodd" clip-rule="evenodd" d="M29.8516 8.41858C0.725853 8.41858 2.41921 45.3822 24.0458 45.3822C32.6578 45.3822 38.0282 40.8343 38.2217 40.6892C38.6571 40.2537 38.9958 39.8183 38.6571 39.2377C38.4152 38.7539 37.8346 38.7539 37.3508 38.8991C36.6735 39.141 34.7866 39.528 34.0609 39.528C16.4499 39.528 17.0305 17.4176 32.0288 17.4176C39.1409 17.4176 39.7215 26.6101 31.9321 26.6101C28.2067 26.6101 25.3521 25.2554 24.9167 25.9811C24.578 26.5133 25.0135 27.3358 25.2554 27.7713C25.4489 28.2067 25.7392 28.6421 26.0295 28.9808C26.3682 29.4162 26.852 29.8517 27.2874 30.1904C27.9648 30.7709 28.6905 31.2548 29.513 31.6418C29.6581 31.6902 29.8516 31.787 29.9968 31.8353C31.2063 32.2708 32.6578 32.4643 33.9157 32.4643C53.0749 32.5611 50.172 8.41858 29.8516 8.41858Z" fill="#A2C62A"/>
<path d="M83.1683 29.2227H81.3782C79.6364 29.2227 78.1366 27.9648 77.8947 26.223C76.2497 28.1099 73.6855 29.7065 70.1052 29.7065C64.9284 29.7065 62.8964 25.7876 62.8964 18.9174C62.8964 10.8376 65.5574 8.41856 70.6858 8.41856C73.0565 8.41856 75.4272 8.95076 77.2657 10.2087C77.1206 8.854 77.0722 7.45093 77.0722 5.99947V2.32246C77.0722 1.30645 77.8947 0.435577 78.9591 0.435577H83.1683V29.2227ZM72.5243 24.7232C74.3144 24.7232 75.3305 24.191 77.0238 23.0782V15.5791C77.0238 14.4179 76.2497 13.4503 75.1369 13.2084C74.4112 13.0632 73.6371 12.9181 72.7179 12.9181C70.1052 12.9181 69.1376 13.7889 69.1376 18.869C69.186 23.7072 70.1536 24.7232 72.5243 24.7232Z" fill="#2C4F16"/>
<path d="M106.972 19.1109C106.972 26.9004 104.118 29.7549 96.5701 29.7549C88.9742 29.7549 86.1196 26.9004 86.1196 19.1109C86.1196 11.3215 88.9742 8.37018 96.5701 8.37018C104.118 8.37018 106.972 11.3215 106.972 19.1109ZM92.506 19.1109C92.506 23.9491 93.3769 25.207 96.5701 25.207C99.7149 25.207 100.586 23.9975 100.586 19.1109C100.586 14.176 99.6665 12.9664 96.5701 12.9664C93.3769 12.9664 92.506 14.176 92.506 19.1109Z" fill="#2C4F16"/>
<path d="M127.438 9.14429L127.051 13.0632C124.438 13.0148 121.777 12.9664 119.261 12.9664C116.116 12.9664 115.342 12.9664 115.342 14.3211C115.342 15.5307 116.068 15.5791 118.003 16.1113L123.18 17.5143C126.615 18.482 128.212 19.885 128.212 23.4169C128.212 28.4486 125.454 29.6098 118.922 29.6098C117.423 29.6098 113.746 29.5614 109.827 28.9324L110.214 24.9651C111.714 25.0619 114.52 25.0619 117.229 25.0619C121.39 25.0619 122.309 24.8683 122.309 23.562C122.309 22.3525 121.438 22.2557 119.455 21.6752L114.423 20.3205C110.552 19.2077 109.488 17.3692 109.488 14.176C109.488 9.96678 111.81 8.37018 118.1 8.37018C120.954 8.41856 124.922 8.70885 127.438 9.14429Z" fill="#2C4F16"/>
<path d="M139.92 22.5944C139.92 24.0943 140.501 24.6265 142.146 24.6265H144.758L145.436 28.8357C143.936 29.3679 141.178 29.6582 139.727 29.6582C136.05 29.6582 133.921 27.5294 133.921 23.804V13.0148H130.341V9.14431L133.921 8.95078V2.0322H138.082C139.098 2.0322 139.968 2.85469 139.968 3.91908V8.99916H145.581V13.0632H139.968V22.5944H139.92Z" fill="#2C4F16"/>
<path d="M166.82 15.821V29.2227H162.03L161.402 26.1263C159.95 27.868 157.386 29.8033 153.709 29.7065C150.177 29.6098 147.322 26.7069 147.322 23.1266V21.8203C147.322 18.5787 149.645 16.6919 153.515 16.6919H160.724V15.7726C160.676 13.7406 159.998 13.16 157.386 13.16C156.08 13.16 154.918 13.2084 153.322 13.3051C151.774 13.4019 150.419 12.2891 150.177 10.7409L149.983 9.38621C152.935 8.85401 155.983 8.41858 158.837 8.41858C164.111 8.3702 166.82 10.1119 166.82 15.821ZM153.322 23.0782C153.322 24.5297 154.048 25.1587 155.692 25.1587C157.096 25.1587 159.031 24.4813 160.724 23.175V20.3205H155.305C153.806 20.3689 153.322 21.0946 153.322 22.2557V23.0782Z" fill="#2C4F16"/>
<path d="M184.286 27.7713C183.996 28.6421 183.27 29.2227 182.302 29.2227H177.029C176.061 29.2227 175.335 28.6421 175.045 27.7713L168.369 8.95078H174.803L178.48 21.6268C178.819 22.8363 179.109 24.0459 179.351 25.2554H179.883C180.222 24.0459 180.512 22.8363 180.851 21.6268L184.528 8.95078H190.963L184.286 27.7713Z" fill="#2C4F16"/>
<path d="M199.139 19.7883C199.284 20.8527 199.43 21.9171 199.43 22.8363V29.2227H193.333V0.435577H197.543C198.559 0.435577 199.43 1.25807 199.43 2.32246V12.3375C199.43 13.5954 199.333 14.8533 199.139 16.0145H201.026L206.058 8.95076H212.88L207.606 15.9661C207.122 16.7886 206.203 17.5627 205.719 17.9014V17.9981C206.203 18.3368 207.122 19.3044 207.606 20.1753L213.557 29.2227H206.735L201.026 19.7883H199.139Z" fill="#2C4F16"/>
<path d="M234.022 15.821V29.2227H229.233L228.604 26.1263C227.152 27.868 224.588 29.8033 220.911 29.7065C217.379 29.6098 214.525 26.7069 214.525 23.1266V21.8203C214.525 18.5787 216.847 16.6919 220.718 16.6919H227.926V15.7726C227.878 13.7406 227.201 13.16 224.588 13.16C223.282 13.16 222.121 13.2084 220.524 13.3051C218.976 13.4019 217.621 12.2891 217.379 10.7409L217.186 9.38621C220.137 8.85401 223.185 8.41858 226.04 8.41858C231.265 8.3702 234.022 10.1119 234.022 15.821ZM220.524 23.0782C220.524 24.5297 221.25 25.1587 222.895 25.1587C224.298 25.1587 226.233 24.4813 227.926 23.175V20.3205H222.459C220.959 20.3689 220.476 21.0946 220.476 22.2557V23.0782H220.524Z" fill="#2C4F16"/>
<path d="M241.715 23.0298C243.312 23.0298 243.844 23.5137 243.844 25.1103V27.0939C243.844 28.6905 243.312 29.2227 241.715 29.2227H240.07C238.474 29.2227 237.941 28.6905 237.941 27.0939V25.1103C237.941 23.5137 238.474 23.0298 240.07 23.0298H241.715Z" fill="#2C4F16"/>
<path d="M267.987 18.9174C267.987 25.1103 266.196 29.7065 258.068 29.7065C255.214 29.7065 250.279 29.2227 247.763 28.1583V0.435577H251.972C252.988 0.435577 253.811 1.25807 253.859 2.27408L253.907 6.87035C253.907 8.56371 253.762 10.1603 253.327 11.6601C255.31 9.6281 257.875 8.3218 260.536 8.3218C265.761 8.37018 267.987 11.3698 267.987 18.9174ZM261.745 18.9658C261.745 14.563 261.116 13.2567 258.117 13.2567C256.52 13.2567 255.31 13.9825 253.811 14.9985L253.859 24.82C255.214 25.1586 256.81 25.2554 257.971 25.207C260.729 25.1103 261.745 23.7556 261.745 18.9658Z" fill="#2C4F16"/>
<path d="M284.291 29.513C282.936 33.4803 279.792 38.2701 273.115 37.496L272.631 33.9157C275.969 33.0449 277.663 31.6902 278.679 29.4162L278.776 29.2711H277.614C276.647 29.2711 275.921 28.6905 275.631 27.7713L269.003 8.95078H275.486L279.259 22.0622C279.501 23.0299 279.695 24.0943 279.888 25.1103H280.421C280.759 24.0943 281.05 22.9331 281.243 22.0622L284.968 8.95078H291.452L284.291 29.513Z" fill="#2C4F16"/>
<path fill-rule="evenodd" clip-rule="evenodd" d="M64.5413 44.2694C65.3638 43.3501 66.8153 42.8663 68.8473 42.8663C70.8793 42.8663 72.3308 43.3501 73.1533 44.2694C73.9758 45.1887 74.4112 46.7852 74.4112 49.0108C74.4112 51.2364 73.9758 52.7846 73.1533 53.7038C72.3308 54.6231 70.8793 55.0585 68.8473 55.0585C66.8153 55.0585 65.3638 54.6231 64.5413 53.7038C63.7189 52.7846 63.2834 51.2364 63.2834 49.0108C63.235 46.7852 63.6705 45.1887 64.5413 44.2694ZM291.5 45.9144H287.871V54.8166H284.678V45.9144H281.05V43.2534H291.5V45.9144ZM276.502 50.172H272.583C272.68 50.9945 272.921 51.575 273.308 51.8653C273.696 52.1556 274.324 52.3008 275.147 52.3008C276.308 52.3008 277.663 52.204 279.211 52.0589L279.501 54.236C278.389 54.8166 276.792 55.1069 274.76 55.1069C272.728 55.1069 271.276 54.6231 270.406 53.7038C269.535 52.7846 269.099 51.2364 269.099 49.0592C269.099 46.7852 269.535 45.237 270.357 44.3178C271.228 43.3985 272.631 42.9631 274.615 42.9631C276.405 42.9631 277.711 43.3018 278.534 43.9791C279.356 44.6565 279.743 45.6725 279.792 47.0272C279.792 48.0916 279.55 48.914 279.018 49.4462C278.485 49.8817 277.663 50.172 276.502 50.172ZM272.486 48.0916H275.582C275.969 48.0916 276.26 47.9948 276.405 47.8013C276.55 47.6077 276.598 47.3174 276.598 46.9304C276.598 46.3982 276.453 46.0111 276.211 45.7692C275.969 45.5757 275.486 45.4306 274.76 45.4306C273.937 45.4306 273.357 45.6241 273.018 45.9628C272.728 46.3014 272.534 47.0272 272.486 48.0916ZM263.584 48.7205V48.8173C264.019 48.8657 264.406 48.9624 264.648 49.0108C264.938 49.0592 265.18 49.2043 265.471 49.4462C265.713 49.6882 265.954 49.8817 266.1 50.0752C266.245 50.2687 266.438 50.6074 266.632 51.188C266.874 51.7202 267.019 52.204 267.164 52.6878C267.309 53.1233 267.503 53.849 267.793 54.865H264.406C263.777 52.6878 263.293 51.3331 262.955 50.8493C262.664 50.3655 262.084 50.0752 261.31 50.0752H260.342C260.439 50.4623 260.439 50.8009 260.439 51.0428V54.865H257.197V43.2534H260.439V46.2047C260.439 46.6885 260.391 47.1239 260.294 47.6077H261.116C261.939 47.6077 262.519 47.3658 262.858 46.8336C263.197 46.3498 263.584 45.1403 264.116 43.2534H267.406C266.729 45.4306 266.293 46.7369 266.051 47.1723C265.713 47.8496 265.18 48.2851 264.503 48.527C264.309 48.5754 263.971 48.6721 263.584 48.7205ZM246.602 43.2534L246.844 44.9467C247.279 44.3662 247.908 43.8823 248.731 43.4953C249.553 43.1082 250.327 42.9147 251.15 42.9147C253.665 42.9147 254.923 44.9951 254.923 49.1076C254.923 51.3331 254.585 52.8813 253.907 53.7522C253.23 54.6231 252.166 55.0585 250.763 55.0585C249.311 55.0585 248.102 54.6715 247.134 53.9457C247.231 54.7199 247.231 55.5907 247.182 56.4132V59.2194H243.941V43.2534H246.602ZM247.231 46.7369V52.0589C248.392 52.3491 249.214 52.5427 249.698 52.5427C250.424 52.5427 250.956 52.3008 251.198 51.8653C251.488 51.4299 251.585 50.5106 251.585 49.1076C251.585 47.7529 251.44 46.8336 251.198 46.3498C250.956 45.866 250.521 45.6241 249.892 45.6241C249.166 45.6241 248.247 46.0111 247.231 46.7369ZM231.652 45.8176L231.362 43.4953C233.297 43.1082 235.184 42.9147 237.022 42.9147C238.474 42.9147 239.586 43.2534 240.264 43.8823C240.941 44.5113 241.328 45.6241 241.328 47.1723V54.8166H238.764L238.425 53.0749C237.361 54.4296 236.006 55.1069 234.41 55.1069C233.345 55.1069 232.523 54.8166 231.845 54.236C231.168 53.6555 230.878 52.833 230.878 51.7686V50.6074C230.878 49.6882 231.168 48.9624 231.749 48.4302C232.329 47.898 233.152 47.6561 234.216 47.6561H238.087V47.1239C238.087 46.5433 237.941 46.1563 237.7 45.9628C237.458 45.7692 236.974 45.6241 236.296 45.6241C235.087 45.6241 233.539 45.6725 231.652 45.8176ZM234.071 50.8493V51.2847C234.071 52.0589 234.506 52.4943 235.329 52.4943C236.2 52.4943 237.119 52.1072 238.038 51.3815V49.7849H235.135C234.41 49.7365 234.071 50.1236 234.071 50.8493ZM224.346 43.2534H227.297C228.023 43.2534 228.41 43.6404 228.459 44.4629L228.797 54.8166H225.846L225.556 45.7692H225.265L223.524 52.2524C223.379 52.9781 222.943 53.3168 222.314 53.3168H220.572C219.895 53.3168 219.46 52.9781 219.314 52.2524L217.573 45.7692H217.282L217.041 54.8166H214.089L214.428 44.4629C214.428 43.6888 214.815 43.2534 215.589 43.2534H218.492C219.169 43.2534 219.556 43.5921 219.702 44.3178L221.056 49.4462C221.153 49.7365 221.25 50.3171 221.346 51.1396H221.588C221.588 51.0428 221.637 50.8009 221.734 50.3655C221.782 49.9301 221.879 49.6398 221.927 49.3979L223.282 44.2694C223.282 43.5921 223.669 43.2534 224.346 43.2534ZM203.494 43.2534L203.736 44.9467C204.171 44.3662 204.8 43.8823 205.622 43.4953C206.445 43.1082 207.219 42.9147 208.042 42.9147C210.557 42.9147 211.815 44.9951 211.815 49.1076C211.815 51.3331 211.477 52.8813 210.799 53.7522C210.122 54.6231 209.058 55.0585 207.654 55.0585C206.203 55.0585 204.993 54.6715 204.026 53.9457C204.123 54.7199 204.123 55.5907 204.074 56.4132V59.2194H200.833V43.2534H203.494ZM204.074 46.7369V52.0589C205.235 52.3491 206.058 52.5427 206.542 52.5427C207.267 52.5427 207.8 52.3008 208.042 51.8653C208.332 51.4299 208.429 50.5106 208.429 49.1076C208.429 47.7529 208.283 46.8336 208.042 46.3498C207.8 45.866 207.364 45.6241 206.735 45.6241C206.058 45.6241 205.139 46.0111 204.074 46.7369ZM195.366 50.172H191.447C191.543 50.9945 191.785 51.575 192.172 51.8653C192.559 52.1556 193.188 52.3008 194.011 52.3008C195.172 52.3008 196.527 52.204 198.075 52.0589L198.365 54.236C197.252 54.8166 195.656 55.1069 193.624 55.1069C191.592 55.1069 190.14 54.6231 189.269 53.7038C188.399 52.7846 187.963 51.2364 187.963 49.0592C187.963 46.7852 188.399 45.237 189.221 44.3178C190.092 43.3985 191.495 42.9631 193.479 42.9631C195.269 42.9631 196.575 43.3018 197.398 43.9791C198.22 44.6565 198.607 45.6725 198.607 47.0272C198.607 48.0916 198.365 48.914 197.833 49.4462C197.349 49.8817 196.527 50.172 195.366 50.172ZM191.35 48.0916H194.446C194.882 48.0916 195.124 47.9948 195.269 47.8013C195.414 47.6077 195.462 47.3174 195.462 46.9304C195.462 46.3982 195.317 46.0111 195.075 45.7692C194.833 45.5757 194.35 45.4306 193.624 45.4306C192.801 45.4306 192.221 45.6241 191.882 45.9628C191.592 46.3014 191.398 47.0272 191.35 48.0916ZM185.689 43.205V54.7682H182.544V45.6725H178.529V54.7682H175.335V43.205H185.689ZM172.578 54.8166H169.675V48.7689C169.675 48.3335 169.723 47.7045 169.772 46.9304H169.675C169.53 47.511 169.239 48.0432 168.852 48.6238L164.74 54.7682H161.982V43.2534H164.885V49.3979C164.885 49.8333 164.837 50.4139 164.788 51.0912H164.837C165.03 50.559 165.32 50.0752 165.659 49.543L169.82 43.2534H172.578V54.8166ZM151.338 54.7682V45.866C151.338 44.0275 152.257 43.0599 154.144 43.0599C157.047 43.0599 159.079 43.1566 160.289 43.3501L160.144 45.7692H155.547C155.209 45.7692 154.918 45.866 154.773 46.0111C154.628 46.1563 154.531 46.4466 154.531 46.8336V54.7682H151.338ZM148.726 49.9784H142.146V47.7045H148.726V49.9784ZM139.533 43.2534V54.8166H136.34V49.9301H132.227V54.8166H129.034V43.2534H132.227V47.511H136.34V43.2534H139.533ZM126.18 54.8166H123.277V48.7689C123.277 48.3335 123.325 47.7045 123.374 46.9304H123.277C123.132 47.511 122.841 48.0432 122.454 48.6238L118.342 54.7682H115.632V43.2534H118.535V49.3979C118.535 49.8333 118.487 50.4139 118.439 51.0912H118.487C118.68 50.559 118.971 50.0752 119.309 49.543L123.47 43.2534H126.228V54.8166H126.18ZM122.357 38.0765H124.535C124.631 39.0442 124.39 39.915 123.712 40.6408C123.035 41.3665 122.116 41.7052 120.954 41.7052C119.745 41.7052 118.826 41.3665 118.148 40.6408C117.471 39.915 117.181 39.0926 117.326 38.0765H119.503C119.455 39.3345 119.938 40.0118 121.003 40.0118C121.922 40.0118 122.406 39.3828 122.357 38.0765ZM103.295 45.8176L103.005 43.4953C104.94 43.1082 106.827 42.9147 108.665 42.9147C110.117 42.9147 111.23 43.2534 111.907 43.8823C112.584 44.5113 112.971 45.6241 112.971 47.1723V54.8166H110.407L110.069 53.0749C109.004 54.4296 107.649 55.1069 106.053 55.1069C104.988 55.1069 104.166 54.8166 103.489 54.236C102.811 53.6555 102.521 52.833 102.521 51.7686V50.6074C102.521 49.6882 102.811 48.9624 103.392 48.4302C103.972 47.898 104.795 47.6561 105.859 47.6561H109.73V47.1239C109.73 46.5433 109.585 46.1563 109.343 45.9628C109.101 45.7692 108.617 45.6241 107.94 45.6241C106.73 45.6241 105.182 45.6725 103.295 45.8176ZM105.714 50.8493V51.2847C105.714 52.0589 106.15 52.4943 106.972 52.4943C107.843 52.4943 108.762 52.1072 109.681 51.3815V49.7849H106.73C106.053 49.7365 105.714 50.1236 105.714 50.8493ZM100.247 43.2534V54.8166H97.0055V45.6241H95.6024C95.2154 45.6241 94.9734 45.7209 94.7799 45.866C94.6348 46.0595 94.4896 46.3498 94.4412 46.7369C94.151 49.3495 93.8607 51.0912 93.6671 52.0105C93.2317 54.236 91.7319 55.2037 89.216 54.865L88.8773 52.3008C89.4579 52.204 89.8934 52.0589 90.1837 51.9137C90.4256 51.7686 90.6191 51.4783 90.7642 51.0428C91.0545 50.172 91.2964 48.527 91.49 46.1079C91.6835 44.1726 92.6511 43.1566 94.4896 43.1566H100.247V43.2534ZM87.2324 43.2534V54.8166H84.0392V49.9301H79.9267V54.8166H76.7335V43.2534H79.9267V47.511H84.0392V43.2534H87.2324ZM68.8473 45.5273C67.9764 45.5273 67.3959 45.7692 67.1056 46.253C66.8153 46.7369 66.6701 47.6561 66.6701 49.0592C66.6701 50.4139 66.8153 51.3331 67.1056 51.8169C67.3959 52.3008 67.9764 52.5427 68.8473 52.5427C69.7182 52.5427 70.2988 52.3008 70.5891 51.8169C70.8793 51.3331 71.0245 50.4139 71.0245 49.0592C71.0245 47.6561 70.8793 46.7369 70.5891 46.253C70.2988 45.7692 69.7182 45.5273 68.8473 45.5273Z" fill="#2C4F16"/>
</svg>
