<svg width="12" height="13" viewBox="0 0 12 13" fill="none" xmlns="http://www.w3.org/2000/svg">
<path d="M6 6.5C7.89375 6.5 9.42857 5.04512 9.42857 3.25C9.42857 1.45488 7.89375 0 6 0C4.10625 0 2.57143 1.45488 2.57143 3.25C2.57143 5.04512 4.10625 6.5 6 6.5ZM8.4 7.3125H7.95268C7.35804 7.57148 6.69643 7.71875 6 7.71875C5.30357 7.71875 4.64464 7.57148 4.04732 7.3125H3.6C1.6125 7.3125 0 8.84102 0 10.725V11.7812C0 12.4541 0.575893 13 1.28571 13H10.7143C11.4241 13 12 12.4541 12 11.7812V10.725C12 8.84102 10.3875 7.3125 8.4 7.3125Z" fill="#ED74A9"/>
</svg>
