<svg width="13.12" height="21.88" viewBox="0 0 14 23" fill="none" xmlns="http://www.w3.org/2000/svg">
<path d="M12.2159 14.6406C11.0482 15.3838 9.44151 15.6785 8.38034 15.7895L9.27104 16.6694L12.5227 19.9282C13.7118 21.1498 11.7769 23.059 10.5751 21.8801C9.76114 21.0515 8.56786 19.8556 7.32343 18.6085L4.07174 21.8759C2.86993 23.0504 0.935111 21.1242 2.13692 19.924C2.96369 19.0954 4.14419 17.8995 5.38861 16.6651L6.26653 15.7852C5.21814 15.6742 3.5859 15.3966 2.40541 14.6363C1.01608 13.7394 0.406658 13.214 0.943635 12.1163C1.259 11.4928 2.12413 10.9674 3.27053 11.8729C3.27053 11.8729 4.81754 13.1072 7.31491 13.1072C9.81228 13.1072 11.3593 11.8729 11.3593 11.8729C12.5057 10.9717 13.3666 11.4928 13.6862 12.1163C14.2146 13.214 13.6052 13.7394 12.2159 14.6406ZM1.78319 5.91466C1.78319 2.85226 4.26778 0.375 7.31065 0.375C10.3535 0.375 12.8381 2.85226 12.8381 5.91466C12.8381 8.96424 10.3535 11.4415 7.31065 11.4415C4.26778 11.4415 1.78319 8.96424 1.78319 5.91466ZM4.59593 5.91466C4.59593 7.41382 5.81478 8.63537 7.31065 8.63537C8.80651 8.63537 10.0254 7.41382 10.0254 5.91466C10.0254 4.40268 8.80651 3.18113 7.31065 3.18113C5.81478 3.18113 4.59593 4.40268 4.59593 5.91466Z" fill="white"/>
</svg>
