<svg width="17" height="17" viewBox="0 0 17 17" fill="none" xmlns="http://www.w3.org/2000/svg">
<path d="M15.1786 0H1.82143C0.815469 0 0 0.815469 0 1.82143V15.1786C0 16.1845 0.815469 17 1.82143 17H15.1786C16.1845 17 17 16.1845 17 15.1786V1.82143C17 0.815469 16.1845 0 15.1786 0ZM3.56696 14.5714C3.30009 14.5714 3.0715 14.3865 3.01234 14.1302L2.44322 11.6637C2.41321 11.5337 2.42985 11.3972 2.49025 11.2782C2.55064 11.1591 2.65094 11.0651 2.77362 11.0125L5.42979 9.87419C5.54326 9.82557 5.66945 9.81515 5.78936 9.8445C5.90926 9.87386 6.01637 9.9414 6.09454 10.0369L7.27076 11.4745C9.12801 10.6032 10.6213 9.08931 11.4745 7.27084L10.0369 6.09461C9.94133 6.01644 9.87379 5.90933 9.84444 5.78943C9.81508 5.66953 9.8255 5.54333 9.87412 5.42987L11.0125 2.77369C11.0651 2.65102 11.1591 2.55072 11.2781 2.49032C11.3972 2.42993 11.5336 2.41328 11.6637 2.44329L14.1302 3.01242C14.2556 3.04133 14.3675 3.11191 14.4477 3.21263C14.5278 3.31334 14.5714 3.43825 14.5714 3.56696C14.5714 9.64947 9.64048 14.5714 3.56696 14.5714Z" fill="#ED74A9"/>
</svg>
